# xmcd CD database file
#
# Track frame offsets:
#	150
#	20801
#	45443
#	63400
#	87077
#	109383
#	120908
#	150318
#	181303
#	208188
#
# Disc length: 3199 seconds
#
# Revision: 0
# Processed by: cddbd v1.5PL3 Copyright (c) Steve Scherf et al.
# Submitted via: CDex 1.51
#
DISCID=7c0c7d0a
DTITLE=Llewellyn (James Harry) - Dolphin Song
DYEAR=1998
DGENRE=New Age
TTITLE0=Dolphin Song
TTITLE1=In Healing Waters
TTITLE2=Swim With Dolphins
TTITLE3=Sea Weavers
TTITLE4=Understanding
TTITLE5=Into the Blue
TTITLE6=Across the Waters
TTITLE7=Corridors Of The Deep
TTITLE8=Our Friends Return
TTITLE9=Farewell
EXTD=YEAR: 1998
EXTT0=
EXTT1=
EXTT2=
EXTT3=
EXTT4=
EXTT5=
EXTT6=
EXTT7=
EXTT8=
EXTT9=
PLAYORDER=
